<?xml version="1.0" standalone="no"?>
<!DOCTYPE svg PUBLIC "-//W3C//DTD SVG 20010904//EN"
 "http://www.w3.org/TR/2001/REC-SVG-20010904/DTD/svg10.dtd">
<svg version="1.0" xmlns="http://www.w3.org/2000/svg"
 width="260.000000pt" height="260.000000pt" viewBox="0 0 260.000000 260.000000"
 preserveAspectRatio="xMidYMid meet">
<metadata>
Created by potrace 1.11, written by Peter Selinger 2001-2013
</metadata>
<g transform="translate(0.000000,260.000000) scale(0.100000,-0.100000)"
fill="#000000" stroke="none">
<path d="M117 2346 c37 -46 77 -95 88 -108 116 -146 154 -187 180 -197 17 -6
134 -50 260 -98 210 -79 301 -118 214 -93 -63 19 -301 72 -304 68 -2 -2 8 -17
23 -35 15 -17 49 -58 77 -91 52 -63 44 -60 165 -78 19 -3 46 -7 60 -10 14 -2
47 -7 75 -10 60 -6 71 -14 24 -15 -19 -1 -50 -2 -69 -4 -19 -2 -46 -3 -60 -4
l-25 -2 30 -25 c17 -15 44 -38 60 -52 17 -14 40 -34 51 -44 12 -11 33 -21 45
-22 13 -2 53 -6 89 -10 134 -14 137 -17 114 -113 -8 -32 -36 -159 -63 -282
l-49 -224 19 -66 c11 -36 21 -78 24 -93 3 -14 9 -37 14 -50 l9 -23 6 25 c3 14
17 88 32 165 14 77 28 142 31 145 5 5 -5 -111 -12 -140 -2 -8 -6 -40 -10 -70
-3 -30 -8 -71 -10 -90 -2 -19 -7 -57 -10 -85 -4 -27 -8 -62 -11 -77 -3 -23 88
-307 114 -354 7 -12 17 9 41 78 18 51 45 129 62 173 16 44 27 90 25 101 -2 11
-7 47 -11 79 -4 33 -8 71 -10 85 -6 35 -24 185 -30 245 -3 28 -8 64 -10 80 -4
28 -4 28 4 5 7 -21 29 -127 47 -230 3 -14 10 -50 16 -80 l11 -55 33 118 32
117 -28 128 c-100 445 -102 453 -86 469 6 6 72 17 175 28 49 6 62 13 132 73
42 37 78 69 78 72 1 3 -38 7 -86 8 -47 1 -88 4 -90 6 -3 3 70 15 187 31 121
16 115 13 195 115 41 52 73 96 71 97 -1 2 -72 -15 -157 -37 -171 -44 -201 -49
-119 -19 30 12 69 27 85 34 54 24 371 145 380 146 10 0 316 371 311 376 -2 2
-59 -28 -127 -65 -68 -38 -153 -85 -189 -104 -36 -20 -85 -47 -110 -60 -25
-14 -112 -62 -195 -108 -82 -45 -172 -95 -200 -110 -93 -51 -210 -115 -238
-129 -24 -13 -31 -13 -61 1 -38 18 -42 31 -52 165 l-6 82 61 75 c34 42 58 76
52 76 -5 0 -93 -39 -195 -86 -183 -86 -184 -87 -194 -125 -11 -44 -10 -45 23
-23 26 17 111 16 109 -1 -1 -5 -5 -31 -8 -58 -10 -72 -20 -91 -59 -105 -35
-13 -36 -12 -369 171 -183 101 -364 201 -403 222 -38 21 -130 71 -203 111 -73
41 -135 74 -138 74 -3 0 25 -38 63 -84z m1133 -1306 c0 -16 -4 -30 -8 -30 -5
0 -7 14 -4 30 2 17 6 30 8 30 2 0 4 -13 4 -30z"/>
</g>
</svg>
